<?xml version="1.0" encoding="UTF-8"?>
<svg id="_レイヤー_1" data-name="レイヤー_1" xmlns="http://www.w3.org/2000/svg" version="1.1" viewBox="0 0 841.89 595.28">
  <!-- Generator: Adobe Illustrator 30.1.0, SVG Export Plug-In . SVG Version: 2.1.1 Build 136)  -->
  <defs>
    <style>
      .st0 {
        font-family: PRIMETIME-Regular, PRIMETIME;
        font-size: 102.17px;
      }

      .st0, .st1 {
        fill: #231815;
      }

      .st2 {
        fill: #fff;
      }
    </style>
  </defs>
  <text class="st0" transform="translate(153.02 -246.7)"><tspan x="0" y="0">FILM</tspan><tspan x="0" y="178.79">ROOM</tspan></text>
  <g>
    <path class="st1" d="M704.33-419.11v10.83h30.79v19.31h-30.79v29.63h-21.15v-77.65l1.63-1.63h61.13v19.51h-41.61Z"/>
    <path class="st1" d="M761.05-359.34v-79.28h21.35v79.28h-21.35Z"/>
    <path class="st1" d="M797.52-359.34v-79.28h21.97v59.67h41.68v19.62h-63.65Z"/>
    <path class="st1" d="M935.53-334.87v-65.23l-16.96,27.99c-.2.41-.55.68-1.02.82-.48.14-.89.2-1.23.2-.41,0-.85-.07-1.33-.2-.48-.14-.82-.41-1.02-.82l-16.96-27.99v40.76h-20.74v-79.28h19.41c.68,0,1.26.31,1.74.92l18.8,31.36,18.9-31.36c.48-.61,1.02-.92,1.63-.92h19.51v103.75h-20.74Z"/>
    <path class="st1" d="M732.12-259.61l-13.79-24.52h-13.38l.1,24.52h-21.86v-79.28h39.74c1.91,0,3.85.36,5.82,1.07,1.97.72,3.88,1.67,5.72,2.86,1.84,1.19,3.54,2.54,5.11,4.04,1.57,1.5,2.89,3.03,3.98,4.6,1.36,1.98,2.4,4.27,3.12,6.9.71,2.62,1.07,5.13,1.07,7.51,0,3.95-.92,7.63-2.76,11.03-1.84,3.41-4.39,6.27-7.66,8.58l18.59,32.69h-23.8ZM716.69-321.21h-12.36v17.06h12.36c1.23,0,2.38-.22,3.47-.66,1.09-.44,2.04-1.05,2.86-1.83.82-.78,1.46-1.68,1.94-2.69.48-1.02.72-2.13.72-3.35s-.24-2.34-.72-3.35c-.48-1.02-1.12-1.91-1.94-2.69-.82-.78-1.77-1.39-2.86-1.83-1.09-.44-2.25-.66-3.47-.66Z"/>
    <path class="st1" d="M796.89-257.16c-5.86,0-11.34-1.09-16.45-3.27s-9.57-5.16-13.38-8.94c-3.82-3.78-6.83-8.22-9.04-13.33-2.21-5.11-3.32-10.56-3.32-16.35s1.11-11.24,3.32-16.35c2.21-5.11,5.23-9.55,9.04-13.33,3.81-3.78,8.28-6.78,13.38-8.99,5.11-2.21,10.59-3.32,16.45-3.32s11.25,1.11,16.4,3.32c5.14,2.21,9.62,5.21,13.43,8.99,3.81,3.78,6.83,8.22,9.04,13.33,2.21,5.11,3.32,10.56,3.32,16.35s-1.11,11.24-3.32,16.35c-2.21,5.11-5.23,9.55-9.04,13.33-3.82,3.78-8.29,6.76-13.43,8.94-5.14,2.18-10.61,3.27-16.4,3.27ZM796.89-320.81c-3,0-5.77.6-8.33,1.79-2.55,1.19-4.75,2.78-6.59,4.75-1.84,1.98-3.29,4.28-4.34,6.9-1.06,2.62-1.58,5.4-1.58,8.33s.53,5.62,1.58,8.28c1.06,2.66,2.5,4.97,4.34,6.95,1.84,1.98,4.04,3.56,6.59,4.75,2.55,1.19,5.33,1.79,8.33,1.79s5.77-.6,8.33-1.79c2.55-1.19,4.75-2.77,6.59-4.75s3.29-4.29,4.34-6.95c1.06-2.66,1.58-5.42,1.58-8.28s-.53-5.7-1.58-8.33c-1.06-2.62-2.5-4.92-4.34-6.9-1.84-1.97-4.04-3.56-6.59-4.75-2.55-1.19-5.33-1.79-8.33-1.79Z"/>
    <path class="st1" d="M887.31-257.16c-5.86,0-11.34-1.09-16.45-3.27s-9.57-5.16-13.38-8.94c-3.82-3.78-6.83-8.22-9.04-13.33-2.21-5.11-3.32-10.56-3.32-16.35s1.11-11.24,3.32-16.35c2.21-5.11,5.23-9.55,9.04-13.33,3.81-3.78,8.28-6.78,13.38-8.99,5.11-2.21,10.59-3.32,16.45-3.32s11.25,1.11,16.4,3.32c5.14,2.21,9.62,5.21,13.43,8.99,3.81,3.78,6.83,8.22,9.04,13.33,2.21,5.11,3.32,10.56,3.32,16.35s-1.11,11.24-3.32,16.35c-2.21,5.11-5.23,9.55-9.04,13.33-3.82,3.78-8.29,6.76-13.43,8.94-5.14,2.18-10.61,3.27-16.4,3.27ZM887.31-320.81c-3,0-5.77.6-8.33,1.79-2.55,1.19-4.75,2.78-6.59,4.75-1.84,1.98-3.29,4.28-4.34,6.9-1.06,2.62-1.58,5.4-1.58,8.33s.53,5.62,1.58,8.28c1.06,2.66,2.5,4.97,4.34,6.95,1.84,1.98,4.04,3.56,6.59,4.75,2.55,1.19,5.33,1.79,8.33,1.79s5.77-.6,8.33-1.79c2.55-1.19,4.75-2.77,6.59-4.75s3.29-4.29,4.34-6.95c1.06-2.66,1.58-5.42,1.58-8.28s-.53-5.7-1.58-8.33c-1.06-2.62-2.5-4.92-4.34-6.9-1.84-1.97-4.04-3.56-6.59-4.75-2.55-1.19-5.33-1.79-8.33-1.79Z"/>
    <path class="st1" d="M994.79-259.61v-40.76l-16.96,27.99c-.2.41-.55.68-1.02.82-.48.14-.89.2-1.23.2-.41,0-.85-.07-1.33-.2-.48-.14-.82-.41-1.02-.82l-16.96-27.99v40.76h-20.74v-79.28h19.41c.68,0,1.26.31,1.74.92l18.8,31.37,18.9-31.37c.48-.61,1.02-.92,1.63-.92h19.51v79.28h-20.74Z"/>
    <g>
      <rect class="st2" x="940.19" y="-433.3" width="11.42" height="8.02" rx="-208.63" ry="-208.63"/>
      <rect class="st2" x="940.19" y="-421.31" width="11.42" height="8.02" rx="-202.64" ry="-202.64"/>
      <rect class="st2" x="940.19" y="-409.33" width="11.42" height="8.02" rx="-196.65" ry="-196.65"/>
      <rect class="st2" x="940.19" y="-397.34" width="11.42" height="8.02" rx="-190.65" ry="-190.65"/>
      <rect class="st2" x="940.19" y="-385.36" width="11.42" height="8.02" rx="-184.66" ry="-184.66"/>
      <rect class="st2" x="940.19" y="-373.37" width="11.42" height="8.02" rx="-178.67" ry="-178.67"/>
      <rect class="st2" x="940.19" y="-361.39" width="11.42" height="8.02" rx="-172.68" ry="-172.68"/>
      <rect class="st2" x="940.19" y="-349.4" width="11.42" height="8.02" rx="-166.69" ry="-166.69"/>
      <rect class="st2" x="940.19" y="-337.42" width="11.42" height="8.02" rx="-160.69" ry="-160.69"/>
      <rect class="st2" x="940.19" y="-325.43" width="11.42" height="8.02" rx="-154.7" ry="-154.7"/>
      <rect class="st2" x="940.19" y="-313.45" width="11.42" height="8.02" rx="-148.71" ry="-148.71"/>
      <rect class="st2" x="940.19" y="-301.46" width="11.42" height="8.02" rx="-142.72" ry="-142.72"/>
      <rect class="st2" x="940.19" y="-289.48" width="11.42" height="8.02" rx="-136.72" ry="-136.72"/>
      <rect class="st2" x="940.19" y="-277.49" width="11.42" height="8.02" rx="-130.73" ry="-130.73"/>
      <rect class="st2" x="940.19" y="-265.51" width="11.42" height="8.02" rx="-124.74" ry="-124.74"/>
    </g>
  </g>
  <path class="st1" d="M971.67,293.81v10.83h36.37v19.31h-36.37v29.63h-21.15v-77.65l1.63-1.63h60.79v19.51h-41.28Z"/>
  <path class="st1" d="M1031.06,353.57v-79.28h21.35v79.28h-21.35Z"/>
  <path class="st1" d="M1070.52,353.57v-79.28h21.97v59.66h41.68v19.62h-63.65Z"/>
  <path class="st1" d="M1211.53,353.57v-40.76l-16.96,27.99c-.2.41-.55.68-1.02.82-.48.14-.89.21-1.23.21-.41,0-.85-.07-1.33-.21-.48-.13-.82-.41-1.02-.82l-16.96-27.99v40.76h-20.74v-79.28h19.41c.68,0,1.26.31,1.74.92l18.8,31.36,18.9-31.36c.48-.61,1.02-.92,1.63-.92h19.51v79.28h-20.74Z"/>
  <path class="st1" d="M999.46,450.63l-13.79-24.52h-13.38l.1,24.52h-21.86v-79.28h39.74c1.91,0,3.85.36,5.82,1.07,1.97.71,3.88,1.67,5.72,2.86,1.84,1.19,3.54,2.54,5.11,4.04,1.57,1.5,2.89,3.03,3.98,4.6,1.36,1.98,2.4,4.28,3.12,6.9.71,2.62,1.07,5.13,1.07,7.51,0,3.95-.92,7.63-2.76,11.03-1.84,3.41-4.39,6.27-7.66,8.58l18.59,32.69h-23.8ZM984.04,389.02h-12.36v17.06h12.36c1.23,0,2.38-.22,3.47-.66,1.09-.44,2.04-1.05,2.86-1.83.82-.78,1.46-1.68,1.94-2.69.48-1.02.72-2.13.72-3.35s-.24-2.34-.72-3.35c-.48-1.02-1.12-1.91-1.94-2.69-.82-.78-1.77-1.39-2.86-1.83-1.09-.44-2.25-.66-3.47-.66Z"/>
  <path class="st1" d="M1141.22,394.85c-2.21-5.11-5.23-9.55-9.04-13.33-3.82-3.78-8.29-6.78-13.43-8.99-5.14-2.21-10.61-3.32-16.4-3.32s-11.34,1.11-16.45,3.32c-.68.3-1.35.61-2.01.93-.66-.32-1.34-.64-2.02-.93-5.14-2.21-10.61-3.32-16.4-3.32s-11.34,1.11-16.45,3.32c-5.11,2.21-9.57,5.21-13.38,8.99-3.82,3.78-6.83,8.22-9.04,13.33-2.21,5.11-3.32,10.56-3.32,16.35s1.11,11.24,3.32,16.35c2.21,5.11,5.23,9.55,9.04,13.33,3.81,3.78,8.28,6.76,13.38,8.94s10.59,3.27,16.45,3.27,11.25-1.09,16.4-3.27c.69-.29,1.36-.6,2.02-.92.66.32,1.33.63,2.01.92,5.11,2.18,10.59,3.27,16.45,3.27s11.25-1.09,16.4-3.27c5.14-2.18,9.62-5.16,13.43-8.94,3.81-3.78,6.83-8.22,9.04-13.33,2.21-5.11,3.32-10.56,3.32-16.35s-1.11-11.24-3.32-16.35ZM1057.13,431.17c-2.55-1.19-4.75-2.77-6.59-4.75-1.84-1.98-3.29-4.29-4.34-6.95-1.06-2.66-1.58-5.42-1.58-8.28s.53-5.7,1.58-8.33c1.06-2.62,2.5-4.92,4.34-6.9,1.84-1.97,4.04-3.56,6.59-4.75,2.55-1.19,5.33-1.79,8.33-1.79.27,0,.52.03.78.04-1.03,1.7-1.96,3.49-2.77,5.38-2.21,5.11-3.32,10.56-3.32,16.35s1.11,11.24,3.32,16.35c.82,1.88,1.74,3.67,2.77,5.38-.26,0-.52.04-.78.04-3,0-5.77-.6-8.33-1.79ZM1121.6,419.47c-1.06,2.66-2.5,4.97-4.34,6.95s-4.04,3.56-6.59,4.75c-2.55,1.19-5.33,1.79-8.33,1.79-.27,0-.52-.03-.78-.04,1.03-1.7,1.96-3.49,2.78-5.38,2.21-5.11,3.32-10.56,3.32-16.35s-1.11-11.24-3.32-16.35c-.82-1.88-1.74-3.67-2.78-5.38.26,0,.52-.04.78-.04,3,0,5.77.6,8.33,1.79,2.55,1.19,4.75,2.78,6.59,4.75,1.84,1.98,3.29,4.28,4.34,6.9,1.06,2.62,1.58,5.4,1.58,8.33s-.53,5.62-1.58,8.28Z"/>
  <path class="st1" d="M1211.53,450.63v-40.76l-16.96,27.99c-.2.41-.55.68-1.02.82-.48.14-.89.2-1.23.2-.41,0-.85-.07-1.33-.2-.48-.14-.82-.41-1.02-.82l-16.96-27.99v40.76h-20.74v-79.28h19.41c.68,0,1.26.31,1.74.92l18.8,31.37,18.9-31.37c.48-.61,1.02-.92,1.63-.92h19.51v79.28h-20.74Z"/>
  <g>
    <path class="st1" d="M248.8,213.1v12.85h36.54v22.92h-36.54v35.17h-25.1v-92.16l1.94-1.94h72.56v23.16h-49.39Z"/>
    <path class="st1" d="M316.13,284.05v-94.1h25.34v94.1h-25.34Z"/>
    <path class="st1" d="M359.42,284.05v-94.1h26.07v70.82h49.48v23.28h-75.55Z"/>
    <path class="st1" d="M281.79,402.42l-16.37-29.1h-15.89l.12,29.1h-25.95v-94.1h47.17c2.26,0,4.57.42,6.91,1.27,2.34.85,4.61,1.98,6.79,3.4,2.18,1.42,4.2,3.01,6.06,4.79,1.86,1.78,3.44,3.6,4.73,5.46,1.62,2.34,2.85,5.07,3.7,8.18.85,3.11,1.27,6.08,1.27,8.91,0,4.69-1.09,9.06-3.27,13.1-2.18,4.04-5.21,7.44-9.1,10.19l22.07,38.81h-28.26ZM263.48,329.3h-14.67v20.25h14.67c1.46,0,2.83-.26,4.12-.78,1.29-.52,2.43-1.24,3.4-2.17.97-.93,1.74-1.99,2.3-3.19.56-1.21.85-2.53.85-3.98s-.28-2.77-.85-3.98c-.57-1.21-1.33-2.27-2.3-3.19-.97-.93-2.1-1.65-3.4-2.17-1.29-.52-2.67-.78-4.12-.78Z"/>
    <path class="st1" d="M358.67,405.33c-6.95,0-13.46-1.29-19.52-3.88-6.06-2.59-11.36-6.12-15.89-10.61-4.53-4.49-8.11-9.76-10.73-15.83-2.63-6.06-3.94-12.53-3.94-19.4s1.31-13.34,3.94-19.4c2.63-6.06,6.2-11.34,10.73-15.83,4.53-4.49,9.82-8.04,15.89-10.67,6.06-2.63,12.57-3.94,19.52-3.94s13.36,1.31,19.46,3.94c6.1,2.63,11.42,6.18,15.95,10.67,4.53,4.49,8.1,9.76,10.73,15.83,2.63,6.06,3.94,12.53,3.94,19.4s-1.31,13.34-3.94,19.4c-2.63,6.06-6.21,11.34-10.73,15.83-4.53,4.49-9.84,8.02-15.95,10.61-6.11,2.59-12.59,3.88-19.46,3.88ZM358.67,329.78c-3.56,0-6.85.71-9.88,2.12-3.03,1.42-5.64,3.29-7.82,5.64-2.18,2.35-3.9,5.07-5.15,8.19-1.25,3.11-1.88,6.41-1.88,9.88s.62,6.67,1.88,9.82c1.25,3.15,2.97,5.9,5.15,8.25,2.18,2.34,4.79,4.23,7.82,5.64,3.03,1.42,6.33,2.12,9.88,2.12s6.85-.71,9.88-2.12c3.03-1.41,5.64-3.29,7.82-5.64s3.9-5.09,5.15-8.25c1.25-3.15,1.88-6.43,1.88-9.82s-.63-6.77-1.88-9.88c-1.25-3.11-2.97-5.84-5.15-8.19-2.18-2.34-4.79-4.22-7.82-5.64-3.03-1.41-6.33-2.12-9.88-2.12Z"/>
    <path class="st1" d="M466,405.33c-6.95,0-13.46-1.29-19.52-3.88-6.06-2.59-11.36-6.12-15.89-10.61-4.53-4.49-8.11-9.76-10.73-15.83-2.63-6.06-3.94-12.53-3.94-19.4s1.31-13.34,3.94-19.4c2.63-6.06,6.2-11.34,10.73-15.83,4.53-4.49,9.82-8.04,15.89-10.67,6.06-2.63,12.57-3.94,19.52-3.94s13.36,1.31,19.46,3.94c6.1,2.63,11.42,6.18,15.95,10.67,4.53,4.49,8.1,9.76,10.73,15.83,2.63,6.06,3.94,12.53,3.94,19.4s-1.31,13.34-3.94,19.4c-2.63,6.06-6.21,11.34-10.73,15.83-4.53,4.49-9.84,8.02-15.95,10.61-6.11,2.59-12.59,3.88-19.46,3.88ZM466,329.78c-3.56,0-6.85.71-9.88,2.12-3.03,1.42-5.64,3.29-7.82,5.64-2.18,2.35-3.9,5.07-5.15,8.19-1.25,3.11-1.88,6.41-1.88,9.88s.62,6.67,1.88,9.82c1.25,3.15,2.97,5.9,5.15,8.25,2.18,2.34,4.79,4.23,7.82,5.64,3.03,1.42,6.33,2.12,9.88,2.12s6.85-.71,9.88-2.12c3.03-1.41,5.64-3.29,7.82-5.64s3.9-5.09,5.15-8.25c1.25-3.15,1.88-6.43,1.88-9.82s-.63-6.77-1.88-9.88c-1.25-3.11-2.97-5.84-5.15-8.19-2.18-2.34-4.79-4.22-7.82-5.64-3.03-1.41-6.33-2.12-9.88-2.12Z"/>
    <path class="st1" d="M595.03,308.32c-.73,0-1.37.36-1.94,1.09l-22.44,37.23-22.31-37.23c-.15-.2-.32-.36-.49-.5v-118.96h-23.16c-.73,0-1.37.36-1.94,1.09l-22.44,37.23-22.31-37.23c-.57-.73-1.26-1.09-2.06-1.09h-23.04v94.1h24.62v-48.39l20.13,33.23c.24.48.65.81,1.21.97.56.16,1.09.24,1.58.24.4,0,.89-.08,1.45-.24.56-.16.97-.49,1.21-.97l20.13-33.23v166.76h5.53v-5.27c0-.95.77-1.73,1.73-1.73h10.09c.95,0,1.73.77,1.73,1.73v5.27h5.53v-48.39l20.13,33.23c.24.48.65.81,1.21.97.56.16,1.09.24,1.58.24.4,0,.89-.08,1.45-.24.56-.16.97-.49,1.21-.97l20.13-33.23v48.39h24.62v-94.1h-23.16ZM542.32,388.98c0,.95-.77,1.73-1.73,1.73h-10.09c-.95,0-1.73-.77-1.73-1.73v-6.06c0-.95.77-1.73,1.73-1.73h10.09c.95,0,1.73.77,1.73,1.73v6.06ZM542.32,374.75c0,.95-.77,1.73-1.73,1.73h-10.09c-.95,0-1.73-.77-1.73-1.73v-6.06c0-.95.77-1.73,1.73-1.73h10.09c.95,0,1.73.77,1.73,1.73v6.06ZM542.32,360.53c0,.95-.77,1.73-1.73,1.73h-10.09c-.95,0-1.73-.77-1.73-1.73v-6.06c0-.95.77-1.73,1.73-1.73h10.09c.95,0,1.73.77,1.73,1.73v6.06ZM542.32,346.3c0,.95-.77,1.73-1.73,1.73h-10.09c-.95,0-1.73-.77-1.73-1.73v-6.06c0-.95.77-1.73,1.73-1.73h10.09c.95,0,1.73.77,1.73,1.73v6.06ZM542.32,332.08c0,.95-.77,1.73-1.73,1.73h-10.09c-.95,0-1.73-.77-1.73-1.73v-6.06c0-.95.77-1.73,1.73-1.73h10.09c.95,0,1.73.77,1.73,1.73v6.06ZM542.32,317.85c0,.95-.77,1.73-1.73,1.73h-10.09c-.95,0-1.73-.77-1.73-1.73v-6.06c0-.95.77-1.73,1.73-1.73h10.09c.95,0,1.73.77,1.73,1.73v6.06ZM542.32,303.63c0,.95-.77,1.73-1.73,1.73h-10.09c-.95,0-1.73-.77-1.73-1.73v-6.06c0-.95.77-1.73,1.73-1.73h10.09c.95,0,1.73.77,1.73,1.73v6.06ZM542.32,289.4c0,.95-.77,1.73-1.73,1.73h-10.09c-.95,0-1.73-.77-1.73-1.73v-6.06c0-.95.77-1.73,1.73-1.73h10.09c.95,0,1.73.77,1.73,1.73v6.06ZM542.32,275.17c0,.95-.77,1.73-1.73,1.73h-10.09c-.95,0-1.73-.77-1.73-1.73v-6.06c0-.95.77-1.73,1.73-1.73h10.09c.95,0,1.73.77,1.73,1.73v6.06ZM542.32,260.95c0,.95-.77,1.73-1.73,1.73h-10.09c-.95,0-1.73-.77-1.73-1.73v-6.06c0-.95.77-1.73,1.73-1.73h10.09c.95,0,1.73.77,1.73,1.73v6.06ZM542.32,246.72c0,.95-.77,1.73-1.73,1.73h-10.09c-.95,0-1.73-.77-1.73-1.73v-6.06c0-.95.77-1.73,1.73-1.73h10.09c.95,0,1.73.77,1.73,1.73v6.06ZM542.32,232.5c0,.95-.77,1.73-1.73,1.73h-10.09c-.95,0-1.73-.77-1.73-1.73v-6.06c0-.95.77-1.73,1.73-1.73h10.09c.95,0,1.73.77,1.73,1.73v6.06ZM542.32,218.27c0,.95-.77,1.73-1.73,1.73h-10.09c-.95,0-1.73-.77-1.73-1.73v-6.06c0-.95.77-1.73,1.73-1.73h10.09c.95,0,1.73.77,1.73,1.73v6.06ZM542.32,204.05c0,.95-.77,1.73-1.73,1.73h-10.09c-.95,0-1.73-.77-1.73-1.73v-6.06c0-.95.77-1.73,1.73-1.73h10.09c.95,0,1.73.77,1.73,1.73v6.06Z"/>
  </g>
</svg>