<svg xmlns="http://www.w3.org/2000/svg" viewBox="220.7 186.9 400.5 221.4">
<g>
    <path fill="#ffffff" d="M248.8,213.1v12.85h36.54v22.92h-36.54v35.17h-25.1v-92.16l1.94-1.94h72.56v23.16h-49.39Z"/>
    <path fill="#ffffff" d="M316.13,284.05v-94.1h25.34v94.1h-25.34Z"/>
    <path fill="#ffffff" d="M359.42,284.05v-94.1h26.07v70.82h49.48v23.28h-75.55Z"/>
    <path fill="#ffffff" d="M281.79,402.42l-16.37-29.1h-15.89l.12,29.1h-25.95v-94.1h47.17c2.26,0,4.57.42,6.91,1.27,2.34.85,4.61,1.98,6.79,3.4,2.18,1.42,4.2,3.01,6.06,4.79,1.86,1.78,3.44,3.6,4.73,5.46,1.62,2.34,2.85,5.07,3.7,8.18.85,3.11,1.27,6.08,1.27,8.91,0,4.69-1.09,9.06-3.27,13.1-2.18,4.04-5.21,7.44-9.1,10.19l22.07,38.81h-28.26ZM263.48,329.3h-14.67v20.25h14.67c1.46,0,2.83-.26,4.12-.78,1.29-.52,2.43-1.24,3.4-2.17.97-.93,1.74-1.99,2.3-3.19.56-1.21.85-2.53.85-3.98s-.28-2.77-.85-3.98c-.57-1.21-1.33-2.27-2.3-3.19-.97-.93-2.1-1.65-3.4-2.17-1.29-.52-2.67-.78-4.12-.78Z"/>
    <path fill="#ffffff" d="M358.67,405.33c-6.95,0-13.46-1.29-19.52-3.88-6.06-2.59-11.36-6.12-15.89-10.61-4.53-4.49-8.11-9.76-10.73-15.83-2.63-6.06-3.94-12.53-3.94-19.4s1.31-13.34,3.94-19.4c2.63-6.06,6.2-11.34,10.73-15.83,4.53-4.49,9.82-8.04,15.89-10.67,6.06-2.63,12.57-3.94,19.52-3.94s13.36,1.31,19.46,3.94c6.1,2.63,11.42,6.18,15.95,10.67,4.53,4.49,8.1,9.76,10.73,15.83,2.63,6.06,3.94,12.53,3.94,19.4s-1.31,13.34-3.94,19.4c-2.63,6.06-6.21,11.34-10.73,15.83-4.53,4.49-9.84,8.02-15.95,10.61-6.11,2.59-12.59,3.88-19.46,3.88ZM358.67,329.78c-3.56,0-6.85.71-9.88,2.12-3.03,1.42-5.64,3.29-7.82,5.64-2.18,2.35-3.9,5.07-5.15,8.19-1.25,3.11-1.88,6.41-1.88,9.88s.62,6.67,1.88,9.82c1.25,3.15,2.97,5.9,5.15,8.25,2.18,2.34,4.79,4.23,7.82,5.64,3.03,1.42,6.33,2.12,9.88,2.12s6.85-.71,9.88-2.12c3.03-1.41,5.64-3.29,7.82-5.64s3.9-5.09,5.15-8.25c1.25-3.15,1.88-6.43,1.88-9.82s-.63-6.77-1.88-9.88c-1.25-3.11-2.97-5.84-5.15-8.19-2.18-2.34-4.79-4.22-7.82-5.64-3.03-1.41-6.33-2.12-9.88-2.12Z"/>
    <path fill="#ffffff" d="M466,405.33c-6.95,0-13.46-1.29-19.52-3.88-6.06-2.59-11.36-6.12-15.89-10.61-4.53-4.49-8.11-9.76-10.73-15.83-2.63-6.06-3.94-12.53-3.94-19.4s1.31-13.34,3.94-19.4c2.63-6.06,6.2-11.34,10.73-15.83,4.53-4.49,9.82-8.04,15.89-10.67,6.06-2.63,12.57-3.94,19.52-3.94s13.36,1.31,19.46,3.94c6.1,2.63,11.42,6.18,15.95,10.67,4.53,4.49,8.1,9.76,10.73,15.83,2.63,6.06,3.94,12.53,3.94,19.4s-1.31,13.34-3.94,19.4c-2.63,6.06-6.21,11.34-10.73,15.83-4.53,4.49-9.84,8.02-15.95,10.61-6.11,2.59-12.59,3.88-19.46,3.88ZM466,329.78c-3.56,0-6.85.71-9.88,2.12-3.03,1.42-5.64,3.29-7.82,5.64-2.18,2.35-3.9,5.07-5.15,8.19-1.25,3.11-1.88,6.41-1.88,9.88s.62,6.67,1.88,9.82c1.25,3.15,2.97,5.9,5.15,8.25,2.18,2.34,4.79,4.23,7.82,5.64,3.03,1.42,6.33,2.12,9.88,2.12s6.85-.71,9.88-2.12c3.03-1.41,5.64-3.29,7.82-5.64s3.9-5.09,5.15-8.25c1.25-3.15,1.88-6.43,1.88-9.82s-.63-6.77-1.88-9.88c-1.25-3.11-2.97-5.84-5.15-8.19-2.18-2.34-4.79-4.22-7.82-5.64-3.03-1.41-6.33-2.12-9.88-2.12Z"/>
    <path fill="#ffffff" d="M595.03,308.32c-.73,0-1.37.36-1.94,1.09l-22.44,37.23-22.31-37.23c-.15-.2-.32-.36-.49-.5v-118.96h-23.16c-.73,0-1.37.36-1.94,1.09l-22.44,37.23-22.31-37.23c-.57-.73-1.26-1.09-2.06-1.09h-23.04v94.1h24.62v-48.39l20.13,33.23c.24.48.65.81,1.21.97.56.16,1.09.24,1.58.24.4,0,.89-.08,1.45-.24.56-.16.97-.49,1.21-.97l20.13-33.23v166.76h5.53v-5.27c0-.95.77-1.73,1.73-1.73h10.09c.95,0,1.73.77,1.73,1.73v5.27h5.53v-48.39l20.13,33.23c.24.48.65.81,1.21.97.56.16,1.09.24,1.58.24.4,0,.89-.08,1.45-.24.56-.16.97-.49,1.21-.97l20.13-33.23v48.39h24.62v-94.1h-23.16ZM542.32,388.98c0,.95-.77,1.73-1.73,1.73h-10.09c-.95,0-1.73-.77-1.73-1.73v-6.06c0-.95.77-1.73,1.73-1.73h10.09c.95,0,1.73.77,1.73,1.73v6.06ZM542.32,374.75c0,.95-.77,1.73-1.73,1.73h-10.09c-.95,0-1.73-.77-1.73-1.73v-6.06c0-.95.77-1.73,1.73-1.73h10.09c.95,0,1.73.77,1.73,1.73v6.06ZM542.32,360.53c0,.95-.77,1.73-1.73,1.73h-10.09c-.95,0-1.73-.77-1.73-1.73v-6.06c0-.95.77-1.73,1.73-1.73h10.09c.95,0,1.73.77,1.73,1.73v6.06ZM542.32,346.3c0,.95-.77,1.73-1.73,1.73h-10.09c-.95,0-1.73-.77-1.73-1.73v-6.06c0-.95.77-1.73,1.73-1.73h10.09c.95,0,1.73.77,1.73,1.73v6.06ZM542.32,332.08c0,.95-.77,1.73-1.73,1.73h-10.09c-.95,0-1.73-.77-1.73-1.73v-6.06c0-.95.77-1.73,1.73-1.73h10.09c.95,0,1.73.77,1.73,1.73v6.06ZM542.32,317.85c0,.95-.77,1.73-1.73,1.73h-10.09c-.95,0-1.73-.77-1.73-1.73v-6.06c0-.95.77-1.73,1.73-1.73h10.09c.95,0,1.73.77,1.73,1.73v6.06ZM542.32,303.63c0,.95-.77,1.73-1.73,1.73h-10.09c-.95,0-1.73-.77-1.73-1.73v-6.06c0-.95.77-1.73,1.73-1.73h10.09c.95,0,1.73.77,1.73,1.73v6.06ZM542.32,289.4c0,.95-.77,1.73-1.73,1.73h-10.09c-.95,0-1.73-.77-1.73-1.73v-6.06c0-.95.77-1.73,1.73-1.73h10.09c.95,0,1.73.77,1.73,1.73v6.06ZM542.32,275.17c0,.95-.77,1.73-1.73,1.73h-10.09c-.95,0-1.73-.77-1.73-1.73v-6.06c0-.95.77-1.73,1.73-1.73h10.09c.95,0,1.73.77,1.73,1.73v6.06ZM542.32,260.95c0,.95-.77,1.73-1.73,1.73h-10.09c-.95,0-1.73-.77-1.73-1.73v-6.06c0-.95.77-1.73,1.73-1.73h10.09c.95,0,1.73.77,1.73,1.73v6.06ZM542.32,246.72c0,.95-.77,1.73-1.73,1.73h-10.09c-.95,0-1.73-.77-1.73-1.73v-6.06c0-.95.77-1.73,1.73-1.73h10.09c.95,0,1.73.77,1.73,1.73v6.06ZM542.32,232.5c0,.95-.77,1.73-1.73,1.73h-10.09c-.95,0-1.73-.77-1.73-1.73v-6.06c0-.95.77-1.73,1.73-1.73h10.09c.95,0,1.73.77,1.73,1.73v6.06ZM542.32,218.27c0,.95-.77,1.73-1.73,1.73h-10.09c-.95,0-1.73-.77-1.73-1.73v-6.06c0-.95.77-1.73,1.73-1.73h10.09c.95,0,1.73.77,1.73,1.73v6.06ZM542.32,204.05c0,.95-.77,1.73-1.73,1.73h-10.09c-.95,0-1.73-.77-1.73-1.73v-6.06c0-.95.77-1.73,1.73-1.73h10.09c.95,0,1.73.77,1.73,1.73v6.06Z"/>
  </g>
</svg>
